<svg xmlns="http://www.w3.org/2000/svg" xmlns:xlink="http://www.w3.org/1999/xlink" version="1.2" viewBox="0 0 122.1 122.1" baseProfile="tiny-ps">  <title>365 Logo Email</title>  <g id="Layer_1-2">    <g>      <rect width="122.1" height="122.1" fill="#1C1C1E"/>      <g>        <g>          <path d="M32.2,70.3c2.2-0.8,4.2-1.8,5.9-2.9s3.1-2.4,4.1-3.9s1.5-3,1.5-4.8s-0.6-3.6-1.9-4.9      s-3.1-2.3-5.4-3c-2.3-0.6-5-0.9-8.1-0.7c3-0.4,5.4-1.1,7.4-2s3.5-2,4.5-3.3c1-1.2,1.5-2.6,1.5-4s-0.5-2.5-1.4-3.5      s-2.2-1.7-3.8-2.2s-3.4-0.8-5.4-0.8s-4.4,0.3-6,1s-3,1.5-4,2.6c-1.1,1.1-2,2.2-2.7,3.4l1,0.6c0.9-1.3,1.9-2.3,3.2-3      c1.3-0.7,2.6-1,4-1s2.8,0.4,3.7,1.2c0.9,0.8,1.3,2,1.3,3.7s-0.3,2.5-0.9,3.7s-1.8,2.4-3.4,3.5c-0.4,0-0.7,0-1-0.1      c-0.3,0-0.6,0-0.9,0c-0.5,0-1,0-1.4,0.3s-0.6,0.5-0.6,1s0.1,0.6,0.3,0.7c0.2,0.1,0.5,0.2,0.8,0.2c0.5,0,1,0,1.5-0.3      c0.5-0.2,1-0.4,1.6-0.7c1.8,0.2,3.3,0.9,4.3,2.3c1,1.4,1.5,3.2,1.5,5.4s-0.5,3.9-1.5,5.4c-1,1.6-2.2,2.9-3.8,3.9      c-1.5,1.1-3.2,1.9-5,2.4c-1.8,0.6-3.5,0.9-5.1,0.9v1.2c2.4,0,4.9-0.2,7.3-0.6s4.8-1,7-1.8l0,0L32.2,70.3z" fill="#FFFFFF"/>          <path d="M61.9,74.2c2.7,0,5.2-0.5,7.5-1.5s4.1-2.6,5.5-4.6s2.1-4.5,2.1-7.3s-0.5-4.7-1.6-6.4      c-1.1-1.8-2.4-3.2-4.2-4.2c-1.7-1-3.7-1.5-5.8-1.5s-2.6,0.2-3.8,0.7s-2.1,1.2-2.9,2.1c0,0.1-0.2,0.3-0.3,0.4      c0.1-0.9,0.2-1.8,0.4-2.7c0.5-2.6,1.2-4.8,2.2-6.6s2-3.2,3.2-4.3c1.2-1.1,2.5-2,3.9-2.6s2.8-1.2,4.2-1.7l-0.2-1.1      c-1.9,0.3-4,0.8-6.3,1.6c-2.2,0.8-4.4,1.8-6.6,3.1c-2.2,1.3-4.1,2.9-5.9,4.8c-1.8,1.9-3.2,4.2-4.2,6.8c-1.1,2.6-1.6,5.6-1.6,9      c0,5.1,1.3,9,3.8,11.8s6,4.2,10.5,4.2l0,0H61.9z M59,52.7c0.6-0.8,1.2-1.4,1.8-1.8s1.2-0.6,1.7-0.6c0.8,0,1.4,0.4,2,1.1      s1,1.9,1.4,3.5c0.3,1.6,0.5,3.8,0.5,6.4s-0.2,5.1-0.6,6.9c-0.4,1.7-0.9,3-1.5,3.8s-1.3,1.2-1.9,1.2s-1.3-0.4-2-1.3      s-1.3-2.4-1.7-4.5c-0.5-2.1-0.7-4.9-0.7-8.5s0-3.3,0.2-4.8c0.2-0.5,0.5-1,0.7-1.4l0,0H59z" fill="#FFFFFF"/>          <path d="M96.3,69.4c2.4-1.2,4.3-2.7,5.7-4.4c1.4-1.7,2.2-3.7,2.2-5.8s-0.4-3.2-1.2-4.5s-2.1-2.5-3.8-3.2      s-3.9-1.2-6.6-1.2s-4.2,0.2-5.8,0.7c-1.6,0.5-2.9,1.1-3.9,1.8l1.1-8.7h10.4c1,0,2.1,0,3.2,0s2,0,2.9,0c0.8,0,1.4,0,1.7,0.2      c0-1.2-0.1-2.5-0.2-4c0-1.5,0-3.6,0-6.3h-1.3c0,0.6-0.3,1.1-0.8,1.3s-1.1,0.4-1.9,0.4H86.8c-0.5,0-1.1,0-1.6,0s-1,0-1.4-0.2      l-2.2,18.1l0.9,0.6c0.8-0.6,1.5-1.1,2.4-1.5s1.8-0.6,3-0.6c2,0,3.5,0.6,4.5,1.8s1.5,3,1.5,5.3s-0.4,3.8-1.2,5.4      c-0.8,1.6-1.9,2.9-3.2,4c-1.4,1.1-2.9,1.9-4.6,2.5S81.5,72,79.7,72v1c2.9,0,5.9-0.3,8.8-0.9s5.6-1.6,7.9-2.8l0,0L96.3,69.4z" fill="#FFFFFF"/>        </g>        <g>          <path d="M35.3,83.1c-0.8,0-1.8,0-2.8,0s-2.1,0-3.1,0h-5.6c-1,0-2.1,0-3.1,0s-2,0-2.8,0      c0,1.1,0.1,2.1,0.1,3c0,1,0,1.7,0,2.2s0,0.7,0,1.1c0,0.3,0,0.6,0,0.8h0.6c0.4-1.7,0.9-3,1.5-3.9s1.2-1.6,1.8-2      c0.6-0.4,1.3-0.6,1.9-0.6l0,0v15.2c0,0.7,0,1.3-0.2,1.6c-0.1,0.3-0.4,0.6-0.9,0.7c-0.4,0.1-1,0.2-1.9,0.2v0.5c0.6,0,1.4,0,2.4,0      s2,0,3.1,0s2.2,0,3.3,0c1,0,1.9,0,2.5,0v-0.5c-0.8,0-1.4,0-1.9-0.2s-0.7-0.3-0.9-0.7c-0.1-0.3-0.2-0.9-0.2-1.6V83.7l0,0      c0.6,0,1.3,0.2,1.9,0.6s1.3,1.1,1.8,2c0.6,1,1.1,2.3,1.5,3.9h0.6c0-0.2,0-0.5,0-0.8s0-0.7,0-1.1s0-1.3,0-2.2c0-1,0-2,0.2-3l0,0      H35.3z" fill="#FFFFFF"/>          <path d="M50.5,99.4v-7.2c0-0.9,0-1.6-0.2-2.2c-0.1-0.5-0.3-1-0.6-1.3c-0.2-0.3-0.6-0.6-1.1-0.8      c-0.5-0.2-1.1-0.3-1.9-0.3s-1.8,0.2-2.5,0.5s-1.3,0.8-1.7,1.5V81c-0.7,0.1-1.4,0.2-2.1,0.3s-1.6,0-2.5,0s-1.1,0-1.7,0v0.6      c0.6,0,1,0.2,1.2,0.6s0.3,1,0.3,1.8v15.1c0,0.7-0.1,1.2-0.3,1.5s-0.6,0.4-1.2,0.4v0.6c0.4,0,1,0,1.7,0s1.5,0,2.3,0s1.4,0,2,0      s1.2,0,1.5,0v-0.6c-0.4,0-0.8-0.1-0.9-0.4s-0.3-0.8-0.3-1.5V91c0-0.4,0-0.7,0.3-1c0.2-0.3,0.4-0.5,0.7-0.7s0.6-0.2,0.9-0.2      s0.6,0,0.8,0.2c0.2,0.1,0.3,0.3,0.4,0.6s0.1,0.6,0.1,0.9v8.6c0,0.7,0,1.2-0.3,1.5c-0.2,0.3-0.5,0.4-1,0.4v0.6c0.3,0,0.9,0,1.6,0      c0.7,0,1.4,0,2.2,0s1.4,0,2.1,0c0.7,0,1.2,0,1.6,0v-0.6c-0.5,0-0.9-0.1-1.2-0.4s-0.3-0.8-0.3-1.5H50.5z" fill="#FFFFFF"/>          <path d="M56.6,81.1c-0.9,0-1.6,0.2-2.1,0.6s-0.8,0.9-0.8,1.7s0.2,1.3,0.8,1.7c0.5,0.4,1.2,0.6,2.1,0.6      s1.6-0.2,2.1-0.6s0.8-0.9,0.8-1.7s-0.2-1.3-0.8-1.7S57.5,81.1,56.6,81.1z" fill="#FFFFFF"/>          <path d="M59.1,99.4V87.8c-0.7,0.1-1.4,0.2-2.1,0.3s-1.6,0-2.5,0s-1.1,0-1.7,0v0.6c0.6,0,1,0.2,1.2,0.6      s0.3,1,0.3,1.8v8.4c0,0.7-0.1,1.2-0.3,1.5s-0.6,0.4-1.2,0.4v0.6c0.4,0,1,0,1.7,0s1.5,0,2.3,0s1.5,0,2.2,0s1.2,0,1.6,0v-0.6      c-0.5,0-0.9-0.1-1.2-0.4c-0.2-0.3-0.3-0.8-0.3-1.5l0,0V99.4z" fill="#FFFFFF"/>          <path d="M75.9,99.4v-7.2c0-0.9,0-1.6-0.2-2.2c-0.1-0.5-0.3-1-0.6-1.3c-0.2-0.3-0.6-0.6-1.1-0.8      c-0.5-0.2-1.1-0.3-1.9-0.3s-1.8,0.2-2.5,0.5s-1.3,0.8-1.7,1.5v-1.9c-0.7,0.1-1.4,0.2-2.1,0.3s-1.6,0-2.5,0s-1.1,0-1.7,0v0.6      c0.6,0,1,0.2,1.2,0.6s0.3,1,0.3,1.8v8.4c0,0.7-0.1,1.2-0.3,1.5s-0.6,0.4-1.2,0.4v0.6c0.4,0,1,0,1.7,0c0.7,0,1.5,0,2.3,0      s1.4,0,2,0c0.7,0,1.2,0,1.5,0v-0.6c-0.4,0-0.8-0.1-0.9-0.4s-0.3-0.8-0.3-1.5V91c0-0.4,0-0.7,0.3-1c0.2-0.3,0.4-0.5,0.7-0.7      s0.6-0.2,0.9-0.2s0.6,0,0.8,0.2c0.2,0.1,0.3,0.3,0.4,0.6c0,0.2,0.1,0.6,0.1,0.9v8.6c0,0.7,0,1.2-0.3,1.5c-0.2,0.3-0.5,0.4-1,0.4      v0.6c0.3,0,0.9,0,1.6,0s1.4,0,2.2,0s1.4,0,2.1,0s1.2,0,1.6,0v-0.6c-0.6,0-0.9-0.1-1.2-0.4c-0.2-0.3-0.3-0.8-0.3-1.5l0,0H75.9z" fill="#FFFFFF"/>          <path d="M90.8,87.4c-0.7,0-1.4,0.2-1.9,0.7c-0.3,0.2-0.6,0.5-0.8,0.8c-0.4-0.3-0.8-0.6-1.3-0.7      c-0.9-0.3-1.8-0.4-2.9-0.4S81.8,88,81,88.2c-0.9,0.3-1.5,0.8-2,1.4S78.3,91,78.3,92s0.2,1.8,0.7,2.4s1.2,1.1,2,1.4      c0.5,0.2,1,0.3,1.6,0.4c-0.8,0.4-1.4,0.8-2,1.3c-0.7,0.6-1,1.3-1,2.1s0.1,1,0.4,1.3c0.3,0.4,0.7,0.7,1.2,0.9s1.2,0.3,2.1,0.3      h1.4c1.1,0,1.9,0.2,2.3,0.5s0.6,0.8,0.6,1.3s-0.1,0.9-0.4,1.3s-0.7,0.7-1.2,0.9s-1.2,0.3-2,0.3s-2-0.2-2.6-0.6s-0.9-0.9-0.9-1.6      s0-0.5,0.2-0.8s0.3-0.6,0.6-0.9l-0.3-0.4c-1.1,0.2-1.9,0.6-2.4,1s-0.7,0.9-0.7,1.4s0.2,0.9,0.7,1.3c0.5,0.3,1.2,0.6,2,0.8      c0.9,0.2,1.9,0.3,3.1,0.3c1.9,0,3.5-0.2,4.7-0.7s2.1-1.1,2.7-1.8c0.6-0.8,0.9-1.6,0.9-2.5s-0.2-1.6-0.7-2.2s-1.2-1-2-1.2      c-0.9-0.2-1.9-0.4-3-0.4h-2.6c-0.6,0-1-0.3-1-0.8s0-0.6,0.3-0.8c0.2-0.1,0.3-0.2,0.4-0.3c0.2,0,0.5,0,0.7,0      c1.1,0,2.1-0.2,2.9-0.4c0.9-0.3,1.5-0.8,2-1.4s0.7-1.4,0.7-2.4s-0.2-1.8-0.7-2.4c0,0-0.2-0.2-0.2-0.3c0.2-0.2,0.3-0.4,0.5-0.6      c0.3-0.3,0.7-0.5,1.2-0.7c-0.3,0.6-0.4,1.1-0.4,1.4c0,0.5,0.2,0.8,0.5,1s0.6,0.3,0.9,0.3s0.7-0.1,1-0.4s0.4-0.7,0.4-1.2      s-0.2-0.9-0.4-1.2c-0.3-0.3-0.8-0.5-1.4-0.5l0,0L90.8,87.4z M84.6,94.9c-0.2,0.6-0.5,0.8-0.8,0.8s-0.6-0.3-0.8-0.8      c-0.2-0.6-0.3-1.5-0.3-2.9s0-2.4,0.3-2.9c0.2-0.6,0.5-0.8,0.8-0.8s0.6,0.3,0.8,0.8c0.2,0.6,0.3,1.5,0.3,2.9S84.9,94.4,84.6,94.9      z" fill="#FFFFFF"/>          <path d="M102.8,95c-0.4-0.4-0.9-0.9-1.5-1.3c-0.5-0.4-1-0.8-1.5-1.2s-0.9-0.8-1.2-1.2s-0.5-0.9-0.5-1.4      s0.2-0.8,0.4-1.1c0.3-0.3,0.7-0.4,1.1-0.4c0.7,0,1.3,0.2,1.8,0.6s0.8,1,1,1.6s0.4,1.3,0.5,1.9h0.5c0-1.2,0-2.2,0-2.9      s0-1.4,0-1.9h-0.5c-0.1,0.8-0.5,1.1-1.1,0.7c-0.3-0.1-0.7-0.3-1.3-0.5c-0.6-0.2-1.3-0.2-2.1-0.2s-1.7,0.2-2.4,0.5      c-0.8,0.3-1.4,0.8-1.8,1.3s-0.7,1.2-0.7,2.1s0.2,1.3,0.4,1.9c0.3,0.6,0.7,1.1,1.2,1.5s1,0.9,1.5,1.4c0.7,0.6,1.3,1.2,1.8,1.8      c0.5,0.5,0.7,1.2,0.7,2s0,0.6-0.2,0.8s-0.3,0.4-0.6,0.5c-0.2,0.1-0.5,0.2-0.8,0.2c-0.6,0-1.2-0.2-1.7-0.6s-0.9-1-1.2-1.7      c-0.3-0.7-0.5-1.6-0.6-2.5h-0.5c0,1.3,0,2.4,0,3.2c0,0.8,0,1.5,0,2.1H94c0-0.2,0.2-0.5,0.3-0.7s0.3-0.3,0.4-0.3s0.4,0,0.6,0.1      c0.2,0,0.4,0.2,0.7,0.3c0.3,0.2,0.7,0.3,1.1,0.5s1,0.2,1.6,0.2c1,0,1.9-0.2,2.7-0.5s1.4-0.8,1.9-1.4s0.7-1.3,0.7-2.1      s-0.1-1.3-0.4-1.8s-0.6-1-1-1.4l0,0L102.8,95z" fill="#FFFFFF"/>        </g>      </g>      <path d="M99.3,0C90.2,11.1,76.5,18.1,61,18.1S31.9,11.1,22.8,0H99.3z" fill="#FF4F79"/>    </g>  </g></svg>